# xmcd
#
# Track frame offsets: 
#        150
#        18577
#        39652
#        50602
#        63427
#        78305
#        95967
#        107677
#        125195
#        140425
#        151315
#        168077
#        179982
#        190440
#        202270
#        216947
#
# Disc length: 3137 seconds
#
# Revision: 0
# Processed by: cddbd v1.5.2PL0 Copyright (c) Steve Scherf et al.
# Submitted via: ExactAudioCopyFreeDBPlugin 1.0
#
DISCID=fa0c3f10
DTITLE=Various Artist - 16 Baladas 2
DYEAR=1990
DGENRE=Ballad
TTITLE0=Judy Collins - Send in the clowns
TTITLE1=Roberta Flack - Killing me softly
TTITLE2=Jim Croce - Time in a bottle
TTITLE3=B.J. Thomas - Raindrops keep falling on my head
TTITLE4=Neil Diamond - Song, sung blue
TTITLE5=Lobo - I love you to want me
TTITLE6=The new seekers - I'd like to teach the world to sing
TTITLE7=Air supply - Allout of love
TTITLE8=Badfinger - Without you
TTITLE9=The pacemakers - Ferry cross the mersey
TTITLE10=Mary Mcgregor - Torn between two lovers
TTITLE11=Skeeter Davis - End of the world
TTITLE12=The new seekers - Come softly to me
TTITLE13=Wanda Jackson - Sweet dreams of you
TTITLE14=Don Gibson - I can't stop loving you
TTITLE15=Brook Benton - A rainy night in Georgia
EXTD=
EXTT0=
EXTT1=
EXTT2=
EXTT3=
EXTT4=
EXTT5=
EXTT6=
EXTT7=
EXTT8=
EXTT9=
EXTT10=
EXTT11=
EXTT12=
EXTT13=
EXTT14=
EXTT15=
PLAYORDER=
